<svg style="display: none">
    <symbol viewBox="32.458 20.216 85.589 35.034" id="logo-mobile">
      <path d="M36.638 46.517c-.014-3.472-.262-6.938-.356-10.41-.008-.34-.015-.68-.02-1.02l.146.364c.54 1.353 1.103 2.664 1.84 3.92.73 1.245 1.098 2.58 1.52 3.94-.16.182-.256.39-.196.596-.033.15.06.245.212.306.537.46 1.55.23 2.113-.008.242-.102.474-.22.696-.355.29-.182.744-.573.613-.978-.024-.08-.05-.157-.072-.235.396-1.068.598-2.18.813-3.308.23-1.207.66-2.346 1.092-3.486.042.52.087 1.044.128 1.56.174 2.147.028 4.27.008 6.422-.008.713.046 1.375.184 2.075.06.288.31 1.522.235 1.58-.516.477-.366 1.062.326 1.212.772.17 1.754-.088 2.334-.625 1.01-.934.53-2.396.304-3.572-.385-1.973.077-4.18.017-6.19-.07-2.26-.43-4.502-.4-6.768.024-1.83.33-3.714-.302-5.47.04-.2.08-.4.117-.6.163-.88-2.754-.415-3.212.39-.29.236-.438.52-.313.807.03.07.057.146.084.22-.553 2.698-1.322 5.312-2.208 7.93-.34 1-.748 1.976-1.095 2.977-.49-.932-.986-1.85-1.384-2.846-1.155-2.89-2.2-5.813-3.61-8.596.16-1.29-2.698-1.153-3.26.02-.683 1.426-.593 2.866-.37 4.393.254 1.722.298 3.412.32 5.148.04 3.347.3 6.69.35 10.04-.297.33-.388.74-.077 1.158.136.182.306.32.482.46.756.632 2.945.113 2.94-1.05zM54.834 28.145c-.09-.613-3.416.084-3.3.885.26 1.776.167 3.56.136 5.352-.03 1.722.394 3.282.615 4.97.226 1.733-.07 3.503.126 5.236.09.812.633 2.312.075 3.018-.354.447 1.237.285 1.31.275.646-.12 1.51-.33 1.938-.874.552-.697.165-2.042.045-2.82-.267-1.734-.097-3.537-.162-5.286-.06-1.676-.644-3.254-.65-4.946-.01-1.953.153-3.877-.132-5.81zM57.958 34.79c.91 2.515 4.648 1.328 6.55 1.472 3.24.24 2.273 4.607 2.314 6.64.022 1.086.995 2.89.18 3.8-.503.555-1.67.588-2.353.645-.688.057-1.855.26-2.313-.39-.836-1.194.077-3.2-.102-4.568-.103-.78-3.424-.08-3.3.883.29 2.21-1.178 5.175 2.023 5.556 2.06.243 4.372-.137 6.317-.784 1.008-.334 1.943-.792 2.73-1.51.873-.793.586-1.978.353-2.986-.57-2.458.616-5.29-.987-7.454-1.737-2.345-4.96-.657-7.21-1.297-1.162-.33-1.176-1.912-1.17-2.86 0-1.203-.1-2.303-.232-3.492-.1-.887-.02-1.787.628-2.447.12-.12.723-.282.68-.28.3-.05.573-.06.9-.075 1.305-.056 3.886.195 3.387 2.092-.226.85 3.028.363 3.266-.53 1.02-3.874-6.14-3.13-8.16-2.593-1.863.494-3.916 1.555-4.023 3.704-.052 1.027.23 2.006.274 3.022.054 1.154-.164 2.322.248 3.45zM72.413 36.66c-.053 1.8-.208 3.594-.22 5.394-.006.92.146 1.842.278 2.75.123.84.408 1.964.153 2.796-.198.646 3 .242 3.254-.587.458-1.497-.188-3.402-.34-4.918-.148-1.45-.033-2.945.07-4.42 1.71-.11 3.42-.25 5.12-.01.076 1.162.164 2.32.272 3.48.087.975.15 1.947.163 2.928.015.855.12 2.1-.185 2.913-.65 1.73 2.655 1.59 3.136.3.592-1.577.423-3.537.323-5.194-.13-2.06-.404-4.106-.47-6.166-.102-3.183-.58-6.33-.594-9.51-.007-1.66-3.338-1.1-3.33.288.01 3.04.416 6.037.57 9.068.005.06.008.12.01.18-1.64-.016-3.28.15-4.93.207.172-3.903-.514-7.772-.363-11.673.02-.492-3.264-.077-3.3.883-.143 3.78.496 7.52.383 11.29zM86.493 42.032c-.254.26-.16.414.045.506 0 1.474-.05 2.95-.178 4.424-.396.63.39.96.912.96h.082c.622 0 2.21-.293 2.29-1.148.16-1.77.21-3.535.195-5.3 1.336-1.445 2.433-3.056 3.415-4.747.64 1.248 1.247 2.505 1.676 3.86.726 2.31 1.94 4.432 2.638 6.75.46 1.522 3.754.622 3.298-.884-.7-2.32-1.856-4.462-2.638-6.75-.79-2.322-1.998-4.36-3.046-6.568.845-1.64 1.7-3.283 2.47-4.96.698-1.524 1.22-3.216 2.594-4.29.483-.375.464-.754-.216-.8-.737-.054-1.738.16-2.334.625-1.25.974-2.042 2.158-2.694 3.595-.784 1.726-1.598 3.42-2.455 5.117-.06.123-.125.248-.188.373-.413.264-.66.642-.54 1.064-.666 1.315-1.347 2.626-2.104 3.884-.252-4.66-.803-9.317-.97-13.983-.035-1.067-3.344-.402-3.296.887.204 5.785 1.024 11.557 1.083 17.34l-.04.045zM118.027 35.8c-.177-.7-1.155-.716-1.914-.648-.01-.28-.017-.566-.03-.85-.105-2.24-.138-4.53-.328-6.764-.176-2.07-1.335-2.812-3.346-2.734-2.036.077-4.405.443-6.303 1.183-2.197.853-3.42 2.47-3.84 4.784-.465 2.54.2 5.24.312 7.79.13 2.95.055 5.91.053 8.86 0 .483 3.297.026 3.297-.885.004-2.338.037-4.676 0-7.014-.01-.687-.043-1.373-.085-2.056 1.155-.5 3.106.01 4.255.118.933.09 1.826-.138 2.732-.244.017 1.946.09 3.905.17 5.85.042.998.402 2.976-.297 3.8-.368.436 1.25.288 1.31.28.668-.124 1.482-.338 1.94-.87.8-.942.383-3.192.337-4.316-.065-1.61-.086-3.223-.12-4.834.972-.137 2.036-.733 1.855-1.448zm-6.662-.162c-1.928-.046-3.828-.35-5.65.036-.087-1.05-.184-2.098-.256-3.154-.135-1.962.098-4.702 1.927-5.896.492-.318 1.413-.264 1.984-.368.82-.147 1.648-.328 2.385.16 1.018.676.77 3.08.766 4.1 0 1.69.178 3.37.263 5.06-.466.046-.94.072-1.418.062zM51.16 24.322c-.05.18.012.356.118.497l.002.113c.004.094.01.188.013.282.062.194.182.343.362.446.325.197.737.233 1.108.197.44-.04.882-.19 1.245-.44l.216-.182c.438-.282.818-.697.612-1.146-.424-.933-.358-1.88-.35-2.87.005-.81-.812-1.052-1.5-.99-.61.054-1.828.49-1.832 1.28-.007.835-.062 1.697.092 2.52-.04.09-.064.195-.087.292zM112.736 53.505c-1.558-.585-3.283-.615-4.85-.787-1.604-.17-3.246-.41-4.885-.562-1.636.053-3.31.027-4.97.13l-4.88.267c-6.488.29-13 .253-19.518.107-6.517-.123-13.045-.477-19.63-.453-3.288.008-6.565.1-9.862.25-1.632.283-3.24.5-4.904.913-1.615.4-3.145.907-4.794 1.048 1.623.362 3.34.292 4.962.297 1.58.01 3.243.143 4.872.23 3.23-.17 6.487-.245 9.733-.25 6.486-.023 13.014.33 19.564.452 6.548.146 13.114.186 19.683-.11l4.907-.27c1.603-.07 3.198-.126 4.83-.066 1.627-.147 3.252-.33 4.917-.53 1.665-.24 3.22-.628 4.855-.51l.074.006.005-.055c.02-.177-.04-.322-.04-.478-.033.12-.038.256-.07.373z"/>
    </symbol>
    <symbol viewBox="19.137 15.003 112.389 46.087" id="logo-tablet">
      <path d="M129.364 56.884c4.394.868.843-35.858.147-38.31-1.96-6.57-26.676-2.145-32.18-1.718-12.722.987-25.188-.96-37.61-.376-6.205.292-34.854-1.813-37.52 1.986-5.047 7.208-2.65 25.797-1.277 35.076-4.043.78 2.31 4.154 3.138 4.897 6.315 2.19 16.36-.22 23.008.395 15.434 1.472 31.797-2.194 47.276-.955 4.496 1.144 9.604 1.02 14.224 1.24 3.414 5.57 19.664-2.462 20.796-2.236-.1-.02.507.1 0 0z"/>
      <g fill="#FFF">
        <path d="M45.195 39.413c-.08-2.546-.484-5.074-.45-7.624.025-2.064.37-4.186-.342-6.165.043-.225.09-.45.132-.675.184-.992-3.103-.467-3.62.44-.325.266-.492.584-.354.908.036.082.066.165.097.247-.623 3.04-1.49 5.985-2.487 8.932-.382 1.128-.843 2.23-1.232 3.354-.553-1.048-1.11-2.082-1.56-3.205-1.303-3.257-2.48-6.55-4.068-9.685.18-1.452-3.04-1.3-3.674.03-.767 1.607-.668 3.23-.416 4.948.285 1.938.334 3.842.358 5.8.045 3.77.34 7.537.396 11.31-.335.373-.438.836-.087 1.306.153.203.344.362.542.52.857.688 3.322.102 3.317-1.206-.013-3.91-.295-7.815-.4-11.727-.01-.382-.016-.765-.02-1.148.054.137.107.275.162.41.606 1.523 1.242 3.002 2.072 4.417.824 1.4 1.237 2.907 1.71 4.437-.178.206-.287.44-.22.674-.038.17.067.276.238.343.606.52 1.747.26 2.38-.008.274-.114.533-.247.785-.4.327-.203.838-.646.69-1.1l-.082-.266c.447-1.205.674-2.457.917-3.73.26-1.355.742-2.64 1.23-3.923.048.587.1 1.176.146 1.762.194 2.42.03 4.81.008 7.235-.01.803.05 1.55.208 2.337.064.324.348 1.714.266 1.79-.58.535-.412 1.192.366 1.363.868.19 1.975-.1 2.628-.705 1.137-1.05.6-2.7.342-4.024-.43-2.22.09-4.71.02-6.973zM53.132 40.056c-.07-1.888-.725-3.666-.734-5.573-.01-2.188.172-4.358-.146-6.535-.1-.688-3.85.095-3.717.996.293 2.002.187 4.014.15 6.03-.034 1.94.445 3.698.695 5.602.254 1.95-.08 3.945.14 5.897.104.913.713 2.603.085 3.398-.398.506 1.394.323 1.474.31.728-.135 1.7-.37 2.185-.986.62-.784.186-2.3.05-3.185-.3-1.956-.11-3.984-.183-5.954zM68.63 36.903c-1.958-2.64-5.59-.74-8.126-1.46-1.308-.372-1.323-2.155-1.32-3.224.004-1.354-.107-2.593-.26-3.936-.11-.998-.02-2.013.71-2.755.134-.138.814-.32.767-.323.336-.058.644-.072 1.014-.088 1.47-.064 4.376.22 3.814 2.355-.253.958 3.413.41 3.68-.604 1.15-4.363-6.914-3.525-9.192-2.92-2.098.557-4.412 1.75-4.53 4.174-.06 1.156.256 2.258.308 3.404.057 1.32-.188 2.635.273 3.907 1.027 2.83 5.238 1.495 7.38 1.656 3.65.272 2.56 5.19 2.608 7.48.025 1.225 1.12 3.256.2 4.28-.565.626-1.88.663-2.65.728-.77.064-2.088.296-2.603-.438-.942-1.345.087-3.605-.114-5.146-.115-.88-3.86-.09-3.717.995.326 2.49-1.327 5.83 2.28 6.257 2.318.275 4.926-.152 7.118-.88 1.135-.377 2.188-.895 3.077-1.702.982-.892.66-2.228.396-3.365-.64-2.77.696-5.956-1.11-8.397zM85.07 36.725c-.114-3.584-.653-7.13-.67-10.72-.006-1.87-3.76-1.238-3.753.326.014 3.425.472 6.802.646 10.216l.012.21c-1.85-.018-3.7.168-5.553.232.19-4.396-.58-8.756-.41-13.15.02-.552-3.678-.084-3.72.996-.16 4.248.56 8.46.43 12.71-.06 2.025-.23 4.045-.246 6.073-.007 1.04.164 2.074.312 3.098.138.947.458 2.212.172 3.15-.224.73 3.38.274 3.666-.66.516-1.687-.21-3.834-.383-5.54-.167-1.637-.04-3.32.078-4.98 1.926-.124 3.853-.282 5.77-.012.085 1.308.187 2.613.306 3.924.1 1.1.17 2.194.187 3.298.016.966.135 2.367-.21 3.282-.733 1.953 2.99 1.792 3.533.347.667-1.775.477-3.984.363-5.85-.145-2.32-.455-4.627-.53-6.95zM101.14 40.97c-.893-2.616-2.253-4.912-3.432-7.398.95-1.85 1.915-3.7 2.782-5.588.788-1.715 1.373-3.624 2.922-4.833.545-.423.522-.85-.243-.9-.83-.06-1.96.18-2.63.703-1.408 1.1-2.3 2.433-3.035 4.05-.885 1.946-1.8 3.856-2.765 5.765-.07.14-.14.28-.213.42-.465.3-.744.724-.606 1.202-.75 1.484-1.517 2.96-2.37 4.375-.283-5.25-.905-10.496-1.093-15.752-.04-1.205-3.768-.455-3.715.996.23 6.516 1.155 13.02 1.22 19.535-.016.017-.03.033-.046.048-.285.293-.18.47.05.57.003 1.66-.056 3.323-.198 4.986-.448.708.44 1.08 1.03 1.08h.09c.702 0 2.49-.33 2.58-1.294.182-1.992.237-3.98.22-5.97 1.51-1.628 2.742-3.445 3.85-5.35.72 1.406 1.405 2.822 1.887 4.35.816 2.603 2.182 4.992 2.97 7.605.52 1.714 4.23.702 3.718-.995-.792-2.61-2.093-5.024-2.974-7.604zM123.443 36.573c-.2-.79-1.302-.807-2.156-.73-.012-.32-.02-.638-.033-.957-.12-2.525-.158-5.104-.37-7.622-.2-2.33-1.506-3.167-3.77-3.08-2.294.087-4.963.5-7.102 1.332-2.475.962-3.852 2.784-4.326 5.39-.522 2.86.227 5.902.354 8.776.146 3.324.062 6.655.06 9.98 0 .545 3.716.03 3.716-.996.004-2.633.04-5.268 0-7.9-.013-.777-.05-1.55-.097-2.318 1.3-.563 3.498.01 4.79.133 1.053.1 2.06-.154 3.08-.274.02 2.193.1 4.4.19 6.59.048 1.123.454 3.352-.334 4.28-.414.49 1.405.326 1.475.314.754-.14 1.672-.38 2.187-.988.9-1.062.433-3.597.38-4.863-.073-1.815-.096-3.63-.134-5.444 1.095-.145 2.294-.816 2.09-1.623zm-13.872-.143c-.098-1.183-.206-2.364-.287-3.552-.15-2.212.11-5.298 2.172-6.642.553-.36 1.59-.298 2.235-.416.922-.166 1.856-.37 2.685.18 1.148.763.865 3.47.863 4.62-.002 1.905.198 3.798.295 5.7-.524.05-1.056.083-1.597.072-2.17-.053-4.31-.394-6.365.038zM49.915 25.373c.495-.047.992-.215 1.4-.497.083-.068.163-.138.245-.206.493-.318.92-.785.69-1.29-.48-1.05-.403-2.118-.395-3.242.006-.908-.914-1.182-1.69-1.114-.685.06-2.057.55-2.062 1.443-.007.942-.068 1.913.104 2.84-.046.106-.07.226-.1.336-.052.2.016.4.136.56l.002.127.014.318c.07.22.204.388.406.503.367.223.832.264 1.25.223z"/>
      </g>
    </symbol>
    <symbol viewBox="0 0 148.051 72.707" id="logo-desktop">
      <path d="M143.165 31.397c-1.48 1.055-3.053 1.942-4.657 2.777.037-1.747-.12-3.465-.59-5.127.05-.333.1-.667.144-1.002.375-3.005.657-7.122-2.003-9.224-.336-.264-1.25-.034-1.923.275-.157-.15-.322-.29-.496-.415-.08-.242-.158-.487-.228-.735-.035-.12-.168-.188-.36-.215.285-.383.263-.818-.42-1.092-.377-.152-.758-.287-1.142-.413-.067-.072-.126-.096-.172-.058l-.006.003c-.938-.3-1.893-.533-2.86-.705.14-.33.397-.813.553-1 .132-.157.28-.3.43-.44.06-.056.124-.11.187-.164.032-.026.053-.045.07-.06l.083-.062c.38-.288.846-.865.22-1.202-.57-.307-1.506-.142-2.006.238-.864.655-1.627 1.38-2.093 2.36-2.01-.168-4.05-.154-6.08-.077.063-.076.113-.158.142-.25.183-.585-.91-.525-1.19-.488-1.56.204-3.124.406-4.687.603 1.367-3.773 3.083-8.578 1-12.264-1.19-2.107-3.905-2.58-6.097-2.653-2.436-.08-4.898.46-7.036 1.636-4.762 2.618-7.11 7.71-8.21 13.138-.497-.656-2.3-.424-2.645.47-.124.32-.23.644-.327.97-.16.175-.282.387-.345.638-.015.056-.027.11-.04.167l-.197.007c.02-.104.04-.207.064-.31.146-.11.247-.232.28-.366.574-2.296 1.156-4.588 1.948-6.82.27-.756-2.51-.4-2.804.426-.424 1.193-.786 2.403-1.12 3.622-.165.078-.356.187-.425.326-.018.034-.032.07-.048.104-.107-.093-.27-.15-.466-.178v-.96c0-.43-2.823-.033-2.823.758v1.568c-.167.072-.327.158-.472.266l-.19.172c-.072.07-.112.152-.12.245-.006.026-.012.053-.022.078-.017.022-.032.046-.052.066-.126.127-.184.334-.027.466.19.16.507.167.737.16l.146-.012v.468c-.226 0-.45-.003-.675-.006l-.41-.05c-.022-.386-.677-.453-1.352-.33.006-.048.007-.097 0-.147-.102-.596-.175-1.193-.23-1.79.237-.08.47-.18.68-.314.16-.102.328-.224.328-.43v-.194c0-.18-.412-.204-.5-.208-.194-.01-.393.01-.588.04-.075-1.304-.08-2.614-.08-3.924 0-.84-2.825-.315-2.824.757 0 1.786.01 3.57.193 5.343-.087-.002-.178 0-.27.01v-1.533c0-1.045-1.297-1.22-2.147-.81.313-.26.49-.62.37-1.038-.403-1.415-.778-2.828-.974-4.288-.188-1.394-3.017-.677-2.824.756.196 1.46.57 2.873.975 4.287.235.828 1.338.89 2.104.51-.228.196-.374.452-.374.76v.63c-.19-.098-.44-.16-.77-.16-1.057 0-1.67.885-1.4 1.477-.164-.027-.327-.054-.49-.083-.383-1.25-.687-2.515-.715-3.83-.02-.943-1.27-1.05-2.107-.673-.008-.056-.022-.11-.05-.168-.384-.805-.566-1.675-.78-2.534-.33-1.35-3.157-.6-2.822.756.158.638.3 1.28.52 1.898l-.056.014c-.3.08-.6.205-.854.387-.832.08-1.828.566-1.752 1.21.058.477.13.952.21 1.426-.547.09-1.093.177-1.64.26-.29-.787-.5-1.6-.618-2.443-.13-.924-1.555-.854-2.332-.26-.774-2.062-1.796-4.02-3.122-5.76-2.62-3.44-7.097-4.614-11.242-3.795-1.9.376-3.735 1.184-5.043 2.646-1.21 1.353-1.35 3.09-1.17 4.805.16 1.492.61 4.004 1.585 5.975-.35-.012-.71.04-.95.14-.282.116-.56.247-.832.387-1.94.03-3.877.02-5.803-.07-4.18-.194-8.3-.86-12.497-.742-.923.026-1.534.72-1.465 1.262-1.046.502-1.733 1.315-2.143 2.287-1.732-1.15-3.48-2.267-5.335-3.212-.69-.35-3.3.707-2.285 1.224 1.84.938 3.56 2.072 5.278 3.216.512.34 1.32.133 1.842-.07.03-.012.09-.04.165-.077-.306 1.44-.157 3.068.24 4.494.03.11.094.198.173.27-.02.338-.023.677-.007 1.015 0 .054 0 .108-.002.164-.4.19-.712.48-.76.84-.188 1.41-.278 2.82-.305 4.228-.273.2-.463.47-.486.798-.233 3.345.037 6.652.467 9.95.186 2.694.69 5.344 1.173 8 .058.415.113.83.167 1.248-.265 1.133-.398 2.395-.237 3.482-.88.17-1.73.866-1.233 1.617.765 1.158 1.644 2.018 2.606 2.65-.633-.104-1.42.11-1.87.554-.82.81-1.716 1.532-2.534 2.34-.43.424-.314.935.29 1.078.65.155 1.515-.06 1.996-.535.817-.808 1.715-1.53 2.533-2.34.25-.244.31-.516.205-.73 3.21 1.735 7.235 1.27 11.114.943-.883 1.59-1.543 3.273-2.17 4.997-.263.72 2.506.373 2.8-.436.61-1.675 1.237-3.343 2.103-4.895 3.74.117 7.48.122 11.215.05.15.183.416.306.746.337 3.27.31 6.49-.097 9.688-.7 4.79-.23 9.577-.525 14.366-.81 7.527-.185 15.056-.345 22.587-.32.1.11.204.216.314.32.27.255.62.344.978.33.062.008.128.015.2.018.713.036 1.427.087 2.14.145.156.04.34.06.56.046h.004c.782.066 1.563.14 2.346.207.17.214.497.342.792.36 3.804.25 7.612.523 11.423.704.14.23.536.34.82.344 7.067.06 15.278 2.804 21.558-1.736.502-.362.274-.877-.263-.984-.108-.02-.217-.03-.326-.034.01-.016.02-.03.024-.045 1.195-2.77 2.174-5.633 2.945-8.552.364-.198.63-.494.645-.86.05-1.19.188-2.406.37-3.64.167-.883.314-1.77.442-2.66.387-2.168.806-4.366 1.018-6.54 2.28-1.147 4.538-2.335 6.622-3.82 1.565-1.116-.784-1.882-1.832-1.136zM87.835 16.35c-.05.04-.094.08-.134.124.074-.312.15-.623.23-.934h.11c-.068.27-.138.54-.205.81z"/>
      <path d="M63.26 12.626c.128.196.563.217.754.217.377 0 .76-.083 1.106-.225.404-.166 1.1-.56.77-1.07-.363-.562-.61-1.19-.975-1.754-.127-.196-.562-.217-.754-.217-.375 0-.757.083-1.104.226-.404.165-1.1.558-.77 1.07.363.56.61 1.19.975 1.753zM20.683 10.907c.216.647 1.11.647 1.648.504.473-.126 1.39-.615 1.176-1.26-.208-.623-.433-1.292-.893-1.78-.48-.506-1.324-.416-1.902-.15-.41.19-1.176.838-.694 1.35.382.404.478.77.667 1.337zM30.66 13.895c.843 0 3.073-1.276 1.186-1.276-.843 0-3.074 1.275-1.186 1.275zM122.562 12.274c.346.072.717.032 1.055-.06.32-.085.7-.233.94-.476.356-.355.73-.73.963-1.178.104-.198.174-.4-.005-.587-.188-.197-.507-.245-.763-.25-.376-.01-.76.073-1.106.22-.252.105-.62.293-.756.552-.098.186-.218.353-.35.513l-.024.027-.028.032-.195.2c-.158.157-.346.364-.28.613.064.24.334.35.55.394zM135.86 17.692c.632-.06 1.396-.246 1.895-.662 1.32-1.102 2.603-2.248 3.623-3.642.288-.393-1.05-.243-1.118-.23-.534.1-1.316.276-1.66.746-.95 1.296-2.165 2.35-3.392 3.374-.498.415.44.434.653.414zM146.74 44.77h-4.872c-.616 0-1.475.467-1.556 1.138-.09.74.754.922 1.304.922h4.87c.618 0 1.476-.468 1.558-1.14.09-.738-.754-.92-1.304-.92zM57.02 60.784c-.497.08-1.41.296-1.638.83-.538 1.273-.98 2.572-1.364 3.898-.21.733 2.57.333 2.798-.45.383-1.328.825-2.626 1.363-3.898.22-.527-.967-.412-1.16-.38zM61.602 63.375c-.347-.003-.696.063-1.03.152-.332.09-.67.207-.967.383-.14.084-.338.2-.338.39 0 .116-.007.23-.02.346-.026.103-.06.2-.126.286l.013-.014c-.064.082-.108.18.018.253.197.115.503.084.713.063.374-.037.745-.127 1.1-.252.242-.084.612-.206.794-.406.15-.164.24-.286.284-.5.036-.178.05-.35.05-.53 0-.166-.42-.168-.488-.17zM116.652 67.05c-.354-.685-3.043.332-2.823.758.843 1.638 1.938 3.122 2.922 4.677.436.69 3.04-.414 2.823-.757-.982-1.554-2.08-3.04-2.923-4.677zM120.744 64.713c-.294-.588-1.067-.563-1.624-.414-.35.093-1.485.597-1.2 1.17l1.17 2.338c.294.588 1.068.562 1.624.414.35-.094 1.486-.598 1.2-1.17l-1.17-2.34zM5.668 43.105c-1.486.36-3.006.57-4.48.975-.538.146-1.343.64-1.16 1.318.18.675 1.127.71 1.663.562 1.477-.403 2.996-.615 4.483-.975.54-.13 1.338-.65 1.16-1.318-.185-.685-1.124-.692-1.665-.562z"/>
      <g>
        <g fill="#FFF">
          <path d="M43.752 40.106c-.083-2.707-.514-5.396-.48-8.108.03-2.194.394-4.45-.362-6.554.047-.24.097-.477.14-.717.196-1.055-3.3-.497-3.848.468-.346.283-.523.62-.377.965.037.087.07.175.102.263-.662 3.233-1.584 6.364-2.645 9.498-.406 1.2-.896 2.37-1.31 3.566-.587-1.114-1.18-2.214-1.658-3.408-1.386-3.464-2.636-6.965-4.326-10.3.192-1.542-3.232-1.38-3.907.033-.815 1.71-.71 3.435-.44 5.263.302 2.06.355 4.086.38 6.167.048 4.012.36 8.016.42 12.027-.356.397-.465.89-.09 1.388.162.217.364.385.575.554.913.73 3.533.107 3.528-1.284-.014-4.16-.314-8.312-.424-12.47-.012-.408-.02-.815-.025-1.223l.173.438c.646 1.62 1.322 3.192 2.205 4.697.876 1.49 1.315 3.092 1.82 4.72-.19.218-.306.466-.235.714-.04.182.07.295.253.364.646.552 1.86.277 2.533-.007.29-.122.566-.263.834-.427.348-.215.89-.686.735-1.17-.03-.093-.06-.187-.088-.28.475-1.282.716-2.613.975-3.966.274-1.44.788-2.805 1.306-4.17.053.624.107 1.248.157 1.87.206 2.578.033 5.12.008 7.697-.008.855.055 1.65.222 2.485.068.345.37 1.824.283 1.904-.617.57-.438 1.267.39 1.45.922.202 2.1-.107 2.794-.75 1.208-1.117.637-2.87.363-4.28-.46-2.362.093-5.008.02-7.414zM52.192 40.788c-.074-2.007-.77-3.897-.78-5.925-.012-2.327.182-4.635-.157-6.95-.107-.73-4.093.102-3.953 1.06.312 2.13.2 4.268.16 6.412-.036 2.063.473 3.934.738 5.958.27 2.073-.085 4.195.15 6.27.11.972.758 2.77.09 3.613-.424.537 1.482.345 1.568.33.775-.143 1.81-.395 2.324-1.048.66-.835.198-2.448.054-3.387-.32-2.08-.115-4.235-.194-6.332zM68.67 37.438c-2.08-2.81-5.942-.787-8.64-1.554-1.39-.396-1.406-2.292-1.402-3.428.004-1.44-.115-2.757-.276-4.184-.12-1.06-.024-2.14.753-2.93.143-.146.866-.34.817-.342.356-.062.683-.077 1.077-.094 1.56-.067 4.653.234 4.055 2.506-.27 1.02 3.63.435 3.913-.643 1.224-4.64-7.352-3.75-9.774-3.107-2.23.592-4.692 1.862-4.82 4.438-.06 1.23.275 2.402.33 3.62.06 1.404-.2 2.803.29 4.156 1.092 3.01 5.57 1.59 7.85 1.76 3.88.29 2.72 5.52 2.77 7.956.028 1.3 1.193 3.46.214 4.55-.6.667-2 .705-2.817.773-.82.07-2.22.315-2.767-.465-1.002-1.43.093-3.834-.12-5.474-.123-.933-4.105-.096-3.954 1.06.345 2.65-1.413 6.2 2.423 6.654 2.464.293 5.238-.162 7.568-.936 1.208-.4 2.33-.95 3.273-1.81 1.045-.95.7-2.37.42-3.58-.68-2.942.74-6.332-1.182-8.926zM86.155 37.248c-.122-3.812-.696-7.582-.71-11.4-.01-1.99-4-1.317-3.994.346.016 3.64.502 7.232.69 10.862.002.074.007.148.01.223-1.966-.02-3.933.178-5.904.247.203-4.675-.617-9.31-.438-13.983.022-.587-3.91-.09-3.953 1.06-.172 4.515.593 8.996.457 13.513-.064 2.155-.247 4.303-.262 6.46-.008 1.105.173 2.204.332 3.293.147 1.008.488 2.352.183 3.35-.238.778 3.594.292 3.897-.702.55-1.794-.224-4.076-.408-5.892-.177-1.74-.04-3.53.084-5.296 2.048-.13 4.096-.3 6.135-.012.09 1.39.197 2.78.325 4.172.106 1.168.18 2.334.198 3.507.016 1.028.143 2.52-.223 3.492-.78 2.074 3.18 1.905 3.757.367.71-1.887.507-4.237.386-6.22-.15-2.468-.48-4.92-.56-7.39zM103.242 41.762c-.948-2.783-2.395-5.224-3.65-7.868 1.01-1.967 2.037-3.935 2.96-5.942.838-1.824 1.46-3.854 3.107-5.14.578-.45.554-.903-.26-.96-.882-.06-2.082.195-2.794.75-1.498 1.168-2.448 2.587-3.23 4.307-.94 2.068-1.913 4.1-2.94 6.13-.073.148-.15.297-.225.447-.493.318-.79.77-.644 1.277-.798 1.578-1.614 3.146-2.52 4.653-.303-5.584-.964-11.162-1.162-16.75-.045-1.282-4.007-.485-3.953 1.058.247 6.93 1.23 13.845 1.3 20.775-.017.017-.032.034-.05.05-.302.312-.19.5.054.607.002 1.767-.06 3.534-.21 5.303-.478.752.466 1.15 1.093 1.15h.098c.746 0 2.65-.354 2.742-1.377.193-2.12.254-4.234.234-6.35 1.606-1.73 2.917-3.662 4.094-5.686.766 1.494 1.495 3 2.007 4.625.87 2.766 2.32 5.308 3.16 8.087.55 1.82 4.497.744 3.952-1.06-.84-2.778-2.225-5.345-3.16-8.088zM126.96 37.085c-.212-.84-1.385-.857-2.292-.777-.013-.338-.02-.677-.036-1.016-.127-2.686-.168-5.428-.396-8.105-.21-2.48-1.6-3.368-4.008-3.276-2.438.094-5.277.533-7.55 1.417-2.632 1.023-4.096 2.96-4.6 5.733-.556 3.04.24 6.275.376 9.33.155 3.536.066 7.08.062 10.615 0 .58 3.952.03 3.953-1.06.002-2.8.042-5.6 0-8.4-.015-.827-.053-1.648-.105-2.467 1.382-.6 3.72.013 5.097.143 1.117.106 2.188-.166 3.273-.293.02 2.333.108 4.678.204 7.008.048 1.194.48 3.563-.357 4.552-.44.52 1.493.347 1.568.333.802-.147 1.778-.404 2.325-1.05.958-1.13.46-3.824.405-5.173-.08-1.928-.103-3.86-.143-5.79 1.166-.15 2.44-.864 2.223-1.722zm-14.752-.152c-.104-1.257-.22-2.513-.306-3.777-.16-2.352.118-5.634 2.31-7.062.587-.383 1.69-.317 2.377-.442.978-.177 1.973-.393 2.854.192 1.22.81.92 3.69.918 4.913-.002 2.024.21 4.038.313 6.058-.558.056-1.122.09-1.698.077-2.307-.055-4.584-.418-6.77.04zM48.77 25.176c.527-.05 1.056-.23 1.49-.53.088-.072.174-.145.26-.218.525-.338.98-.834.735-1.373-.51-1.115-.428-2.25-.42-3.445.007-.966-.972-1.257-1.797-1.185-.73.064-2.188.586-2.194 1.534-.007 1-.072 2.033.11 3.02-.05.112-.075.24-.105.357-.057.214.015.424.143.595l.002.135.015.338c.074.235.218.413.433.535.39.236.884.28 1.328.236z"/>
        </g>
      </g>
    </symbol>
</svg>
